<svg width="64" height="64" viewBox="0 0 64 64" fill="none" xmlns="http://www.w3.org/2000/svg">
  <defs>
    <linearGradient id="g1" x1="0" y1="0" x2="1" y2="1">
      <stop offset="0%" stop-color="#FF8C72" />
      <stop offset="100%" stop-color="#FFCF97" />
    </linearGradient>
  </defs>
  <rect width="64" height="64" rx="16" fill="#FFF4EA" />
  <circle cx="32" cy="30" r="18" fill="url(#g1)" />
  <circle cx="32" cy="30" r="11" fill="#FFF4EA" />
  <path d="M22 28C22 24.69 24.69 22 28 22C31.31 22 34 24.69 34 28C34 31.31 31.31 34 28 34C24.69 34 22 31.31 22 28Z" fill="#FF8C72" />
  <path d="M16 28L10 22L12 18L20 22L16 28Z" fill="#FFCF97" />
  <path d="M48 28L54 22L52 18L44 22L48 28Z" fill="#FFCF97" />
  <path d="M24 44L18 52L14 50L20 42L24 44Z" fill="#FFCF97" />
  <path d="M40 44L46 52L50 50L44 42L40 44Z" fill="#FFCF97" />
</svg>
